<svg width="57" height="56" viewBox="0 0 57 56" fill="none" xmlns="http://www.w3.org/2000/svg">
<path d="M52.1231 29.4554C52.1231 30.5818 51.834 31.6483 51.3257 32.5753C51.2559 32.695 51.1861 32.8245 51.1064 32.9441C49.9501 34.7384 47.9366 35.9345 45.644 35.9345H43.9793C40.0819 35.9345 36.9121 39.1043 36.9121 43.0017V49.5207C36.9121 50.5673 36.6629 51.5641 36.2144 52.4313C35.1578 54.5445 32.9648 55.9998 30.433 55.9998C30.2835 55.9998 30.134 55.9899 29.9844 55.9799V41.5763C29.9844 40.7889 30.0542 40.0114 30.2037 39.2638C30.4131 38.0876 30.8018 36.9712 31.3201 35.9345C32.5362 33.5223 34.4999 31.5586 36.9121 30.3425C37.6198 29.9837 38.3774 29.6946 39.1549 29.4753C40.2314 29.1663 41.3777 29.0068 42.5539 29.0068H52.1031C52.1131 29.1564 52.1231 29.3059 52.1231 29.4554Z" fill="#0341A7"/>
<path d="M56.7183 26.5258C56.7183 26.6753 56.7083 26.8248 56.6983 26.9644H42.5539C41.607 26.9644 40.68 26.8547 39.7928 26.6554C38.7761 26.4361 37.8092 26.0872 36.9121 25.6287C34.4999 24.4126 32.5362 22.4489 31.3201 20.0367C31.0311 19.4685 30.7918 18.8804 30.6024 18.2624H30.5925C30.1938 17.0464 29.9844 15.7406 29.9844 14.3949V5.32414C30.134 5.31417 30.2835 5.3042 30.433 5.3042C31.2803 5.3042 32.0976 5.47365 32.8452 5.77269C32.9848 5.82253 33.1143 5.88234 33.2439 5.95211C35.4169 6.98877 36.9121 9.21161 36.9121 11.7833V12.9695C36.9121 16.8171 39.9822 19.947 43.7999 20.0367C43.8597 20.0467 43.9195 20.0467 43.9793 20.0467C44.0391 20.0467 44.0989 20.0467 44.1587 20.0367H50.2292C51.3655 20.0367 52.4321 20.3258 53.3591 20.8341C55.3626 21.9406 56.7183 24.0737 56.7183 26.5258Z" fill="#0341A7"/>
<path d="M26.8435 41.5763V50.9262C26.674 50.9362 26.5046 50.9461 26.3351 50.9461C25.5178 50.9461 24.7403 50.7966 24.0226 50.5175C23.8033 50.4378 23.594 50.3481 23.3846 50.2384C21.5406 49.3014 20.2148 47.5072 19.9158 45.3841V43.0017C19.9158 39.1043 16.746 35.9345 12.8486 35.9345H6.48909C5.39262 35.9345 4.35596 35.6654 3.44888 35.1869C1.3955 34.1004 0 31.9374 0 29.4554C0 29.3059 0.00996833 29.1564 0.0199362 29.0068H14.274C15.3107 29.0068 16.3174 29.1364 17.2743 29.3756C18.2013 29.5949 19.0885 29.9239 19.9158 30.3425C22.328 31.5586 24.2917 33.5223 25.5078 35.9345C25.8367 36.5824 26.1059 37.2702 26.3152 37.9779C26.6641 39.1143 26.8435 40.3303 26.8435 41.5763Z" fill="#0341A7"/>
<path d="M26.8414 0.0199362V14.3936C26.8414 15.2807 26.7517 16.1579 26.5623 16.9952C26.343 18.0618 25.9842 19.0885 25.5057 20.0354C24.2896 22.4476 22.3259 24.4113 19.9137 25.6274C19.2857 25.9464 18.6279 26.2155 17.9401 26.4149C16.7738 26.7737 15.5478 26.9631 14.2719 26.9631H4.99181C4.98184 26.8235 4.97188 26.674 4.97188 26.5245C4.97188 25.4579 5.23104 24.4612 5.6796 23.574C5.77927 23.3747 5.88892 23.1753 6.0185 22.9859C7.16481 21.2116 9.16835 20.0354 11.451 20.0354H12.6671C12.7269 20.0454 12.7867 20.0454 12.8465 20.0454C12.9063 20.0454 12.9661 20.0454 13.0259 20.0354C16.8436 19.9457 19.9137 16.8158 19.9137 12.9682V6.48909C19.9137 5.42252 20.1729 4.42573 20.6214 3.53859C21.688 1.43537 23.8809 0 26.4028 0C26.5523 0 26.7018 0.00996833 26.8414 0.0199362Z" fill="#0341A7"/>
</svg>
